<svg xmlns="http://www.w3.org/2000/svg" width="210.572" height="47.602" viewBox="0 0 210.572 47.602">
  <g id="Gruppe_218" data-name="Gruppe 218" transform="translate(-419 -865.647)">
    <g id="Gruppe_5" data-name="Gruppe 5" transform="translate(475.572 866.747)">
      <text id="Bio_Risk" data-name="Bio Risk" transform="translate(0 36)" fill="#161615" font-size="37" font-family="Montserrat-SemiBold, Montserrat" font-weight="600"><tspan x="0" y="0">Bio Risk</tspan></text>
    </g>
    <g id="Gruppe_147" data-name="Gruppe 147" transform="translate(419 865.647)">
      <path id="Pfad_33" data-name="Pfad 33" d="M32.178,8.887a23.8,23.8,0,1,0,23.8,23.8A23.828,23.828,0,0,0,32.178,8.887Zm0,44.324A20.523,20.523,0,1,1,52.7,32.688,20.546,20.546,0,0,1,32.178,53.211Z" transform="translate(-8.377 -8.887)"/>
      <path id="Pfad_34" data-name="Pfad 34" d="M60.621,47.8A9.572,9.572,0,0,0,50.956,38.8c-.041-.075-.08-.151-.123-.225s-.084-.138-.126-.207a9.572,9.572,0,0,0-2.964-12.855,1.093,1.093,0,0,0-1.208,1.822,7.389,7.389,0,0,1,2.684,9.159,9.681,9.681,0,0,0-11.6-1.46h0a9.654,9.654,0,0,0-1.925,1.459,7.389,7.389,0,0,1,2.684-9.157,1.093,1.093,0,0,0-1.208-1.822A9.572,9.572,0,0,0,34.2,38.365q-.129.211-.246.429a9.589,9.589,0,0,0-9.667,9,1.093,1.093,0,1,0,2.181.135,7.4,7.4,0,0,1,6.615-6.91c0,.019-.009.039-.013.058-.03.121-.059.243-.085.366-.012.057-.022.114-.033.171-.018.093-.035.187-.05.281-.011.073-.021.146-.031.219s-.022.164-.032.246-.016.159-.023.239-.013.156-.018.234-.009.166-.012.249,0,.151-.006.227c0,.042,0,.084,0,.127s0,.093,0,.14c0,.066,0,.131,0,.2,0,.1.009.205.016.307,0,.046.007.091.01.137q.015.185.036.368c0,.021.005.041.008.062a9.7,9.7,0,0,0,6.964,8.1A7.389,7.389,0,0,1,30.55,55a1.093,1.093,0,0,0-.974,1.956,9.571,9.571,0,0,0,12.608-3.849c.09,0,.18.007.271.007s.181,0,.271-.007a9.569,9.569,0,0,0,12.608,3.849A1.093,1.093,0,0,0,54.36,55a7.389,7.389,0,0,1-9.271-2.252,9.691,9.691,0,0,0,7.042-9.308c0-.087,0-.173-.007-.26v-.051c0-.12-.01-.239-.018-.357,0-.062-.009-.124-.015-.187q-.01-.119-.023-.237-.017-.154-.039-.308c-.006-.041-.012-.081-.018-.122q-.033-.211-.076-.422v-.007q-.047-.232-.105-.461a7.39,7.39,0,0,1,6.612,6.906,1.093,1.093,0,0,0,2.181-.135ZM49.678,42.352c.013.09.025.181.035.272.006.051.011.1.015.153s.008.1.012.157c.006.089.011.177.013.266v.032a7.3,7.3,0,0,1-5.762,7.321A7.381,7.381,0,0,1,49.4,41.176a7.248,7.248,0,0,1,.272,1.132ZM35.324,45.013c-.015-.065-.028-.13-.041-.195s-.029-.153-.041-.23l-.011-.072a7.282,7.282,0,0,1,.281-3.344c.085.019.17.039.255.062a7.39,7.39,0,0,1,5.152,9.317,7.312,7.312,0,0,1-5.572-5.441C35.339,45.078,35.331,45.046,35.324,45.013Zm7.13-4.112a7.376,7.376,0,0,1-5.413-2.363,7.293,7.293,0,0,1,10.827,0A7.376,7.376,0,0,1,42.455,40.9Z" transform="translate(-18.653 -19.508)"/>
    </g>
  </g>
</svg>
