<svg id="Ebene_1" data-name="Ebene 1" xmlns="http://www.w3.org/2000/svg" viewBox="0 0 168.67 51.34">
  <defs>
    <style>
      .cls-1 {
        fill: #010101;
        fill-rule: evenodd;
      }
    </style>
  </defs>
  <title>Zeichenfläche 1</title>
  <g id="Gruppe_182" data-name="Gruppe 182">
    <path id="Pfad_68" data-name="Pfad 68" class="cls-1" d="M8,19.92H6.7V5.76C6.7,3,3.52,1.19,2.27.82L1.17,2.56c.63.24,2.92,1,2.92,3.15V18C1.71,16.35,0,14.28,0,11.41V0H15.94V11.41c0,2.87-1.71,4.94-4.09,6.62V5.71c0-2.1,2.28-2.92,2.92-3.15L13.67.82C12.42,1.19,9.24,3,9.24,5.76V19.92Z"/>
  </g>
  <g id="Gruppe_183" data-name="Gruppe 183">
    <path id="Pfad_69" data-name="Pfad 69" class="cls-1" d="M21.47,51.18h.78l0-2.82h3.37l0,2.82h.78l.05-6.24h-.78l0,2.77H22.28l0-2.77h-.78l-.05,6.24Zm8.4-6.63h.7l.61-.85.63.85h.7l-.92-1.29h-.83l-.9,1.29Zm-1.15,3.52a2.34,2.34,0,1,1,0,.11A.37.37,0,0,1,28.72,48.07Zm-.84,0a3.13,3.13,0,0,0,3,3.25h.33a3.19,3.19,0,0,0,3.31-3.07v-.17a3.13,3.13,0,0,0-3-3.26H31.2a3.18,3.18,0,0,0-3.31,3.07A1.09,1.09,0,0,0,27.88,48.07Zm8.87-2.59h.94a1.21,1.21,0,0,1,1.39,1.26A1.24,1.24,0,0,1,37.87,48H36.74V45.48Zm-.82,5.7h.78l0-2.58h.9c1,0,2.22-.48,2.22-1.86a1.74,1.74,0,0,0-1.66-1.82,1.22,1.22,0,0,0-.33,0H36l-.06,6.24Zm5.16,0h.78l.05-6.24h-.77l-.06,6.24Zm2-5.59h2l0,5.59h.77l.05-5.59h2v-.65H43.06Zm4.48,5.59h.81l.86-2.07h2.58l.81,2.07h.84l-2.51-6.24h-.74l-2.65,6.24Zm4-2.71H49.47l1.05-2.82h0l1,2.82Zm6.41,2.72v-.65H55.27l0-5.6h-.77l0,6.24ZM66,45l0,3.84c0,1.43-.78,1.88-1.7,1.88a1.49,1.49,0,0,1-1.7-1.25,1.4,1.4,0,0,1,0-.41c0-.58,0-1.18,0-1.76l0-2.3h-.78l0,2.16c0,.64,0,1.21,0,1.71a2.19,2.19,0,0,0,1.83,2.49,2.41,2.41,0,0,0,.6,0,2.27,2.27,0,0,0,2.52-2,3,3,0,0,0,0-.52l0-3.89Zm2.49,6.24h.78l0-5h0l3.35,5h.75l0-6.23H72.7l0,4.93h0l-3.36-4.94h-.73l-.07,6.25Zm6.78,0h.78l0-6.24h-.77l0,6.24Zm4.4,0h.73l2.66-6.25h-.8l-2.2,5.33-2-5.33h-.86l2.5,6.24Zm4.43,0h3.3v-.65H84.89l0-2.18h2.37v-.65H84.9l0-2.12h2.44v-.65H84.15l-.05,6.24Zm4.68,0h.78l0-2.67h.5c.6,0,.78.36,1.17.86l1.33,1.8h1L92.17,49.3c-.26-.32-.61-.88-1-1v0a1.7,1.7,0,0,0,1.57-1.74c0-1-.8-1.64-2-1.64H88.83l-.06,6.25Zm.83-5.7h.93a1.21,1.21,0,0,1,1.39,1.26c0,.91-.79,1.18-1.56,1.18h-.78l0-2.44Zm4.71,5.33a3,3,0,0,0,1.71.5,1.77,1.77,0,0,0,2-1.79c0-2-2.8-1.64-2.8-3a1.08,1.08,0,0,1,1.08-1.09h.07a2.29,2.29,0,0,1,1.33.45l.3-.57a3.28,3.28,0,0,0-1.66-.49,1.72,1.72,0,0,0-1.89,1.51s0,.09,0,.13c0,2.19,2.75,1.54,2.75,3.13a1.11,1.11,0,0,1-1.1,1.14H96a2.45,2.45,0,0,1-1.33-.46l-.34.56Zm5.14.37h.78l.05-6.24h-.78l-.05,6.24Zm2-5.59h2l0,5.59h.77l.05-5.59h2V45h-4.73v.65Zm4.48,5.59h.8l.86-2.07h2.59l.81,2.07h.83L109.3,45h-.74Zm4-2.72h-2l1-2.82h0l1,2.82Zm3,2.72h.78l0-6.24H113Zm2.61,0h.79l0-2.67h.5c.6,0,.78.36,1.17.86l1.35,1.8h.94L118.9,49.3c-.26-.32-.61-.88-1-1v0a1.68,1.68,0,0,0,1.57-1.74c0-1-.8-1.64-2-1.64h-1.89l0,6.25Zm.83-5.7h.93a1.21,1.21,0,0,1,1.39,1.26c0,.91-.79,1.18-1.56,1.18h-.78Zm4.91,5.7h3.3v-.65H122l0-2.18h2.37v-.65h-2.38V45.59h2.45v-.65H121.3l-.06,6.24Zm8.1-5.65h1a2.43,2.43,0,0,1,2.72,2.1,2.55,2.55,0,0,1,0,.39c0,1.72-1.14,2.56-2.93,2.56h-.83l.06-5.05Zm-.83,5.65h1.72c2,0,3.58-1.09,3.58-3.2,0-1.53-1-3-3.37-3h-1.88l0,6.24Zm6.71,0h3.3v-.65H136l0-2.18h2.37v-.65H136V45.59h2.45v-.65h-3.21l-.05,6.24Zm7.27,0h1.75c1.23,0,2-.62,2-1.73A1.45,1.45,0,0,0,145,47.93v0a1.38,1.38,0,0,0,1.1-1.45c0-.71-.47-1.52-1.84-1.52h-1.73l-.06,6.24Zm.82-3h.73c.9,0,1.45.4,1.45,1.16s-.51,1.21-1.3,1.21h-.91l0-2.37Zm0-2.74H144c1,0,1.39.38,1.39,1.07s-.41,1.07-1.44,1.07h-.58V45.49Zm4.42,5.7h3.3v-.65h-2.51l0-2.18h2.37v-.65h-2.38l0-2.12H151v-.65h-3.21l-.06,6.24Zm4.68,0h.79l0-2.68h.5c.6,0,.78.37,1.17.86l1.3,1.81h1l-1.42-1.88c-.26-.33-.61-.88-1-1h0a1.7,1.7,0,0,0,1.57-1.74c0-1-.8-1.64-2-1.64H152.5l-.05,6.25Zm.83-5.7h.93a1.21,1.21,0,0,1,1.38,1,1.93,1.93,0,0,1,0,.24c0,.91-.79,1.18-1.56,1.18h-.78l0-2.43Zm4.91,5.7H159l0-5h0l3.36,5h.73l.07-6.24h-.79l0,4.94h0L159,44.94h-.73l0,6.25Zm6.75,0h3.3v-.65h-2.51l0-2.18h2.37v-.65h-2.38l0-2.12h2.44v-.65H165l0,6.24Z"/>
    <path id="Pfad_70" data-name="Pfad 70" class="cls-1" d="M25.69,33.69l0,3.84c0,1.43-.77,1.88-1.7,1.88a1.47,1.47,0,0,1-1.7-1.66c0-.58,0-1.17,0-1.76l0-2.3h-.77l0,2.17c0,.63,0,1.21,0,1.7a2.19,2.19,0,0,0,1.83,2.49,2,2,0,0,0,.6,0,2.24,2.24,0,0,0,2.52-2,1.88,1.88,0,0,0,0-.53l0-3.89Zm2.49,6.24H29l0-5h0l3.38,5h.73l0-6.26H32.4l0,4.93h0L29,33.68h-.73l-.05,6.25Zm6.79,0h.77l.06-6.24H35L35,39.93Zm4.4,0h.72l2.64-6.25H42L39.74,39l-2-5.33h-.89l2.53,6.25Zm4.42,0h3.3v-.65h-2.5l0-2.17H47v-.65H44.6V34.34h2.45v-.65H43.85Zm4.69,0h.78l0-2.67h.5c.59,0,.77.36,1.16.86L52.32,40h.94l-1.4-1.9c-.26-.33-.61-.89-1-1v0a1.69,1.69,0,0,0,1.57-1.73c0-1-.8-1.64-2-1.64H48.53l-.05,6.24Zm.83-5.7h.92a1.21,1.21,0,0,1,1.39,1.26c0,.91-.79,1.18-1.56,1.18h-.78l0-2.44ZM54,39.56a3.07,3.07,0,0,0,1.72.49,1.84,1.84,0,0,0,2-1.79c0-2-2.81-1.64-2.81-3A1.09,1.09,0,0,1,56,34.16h.06a2.25,2.25,0,0,1,1.33.46l.3-.57a3.25,3.25,0,0,0-1.66-.49,1.72,1.72,0,0,0-1.89,1.51s0,.09,0,.14c0,2.18,2.75,1.53,2.75,3.12a1.13,1.13,0,0,1-1.11,1.14h-.12A2.45,2.45,0,0,1,54.35,39l-.34.56Zm5.14.37h.78L60,33.69h-.78l-.05,6.24Zm2-5.6h2l-.05,5.6h.77l.06-5.6h2v-.64H61.13v.65Zm6.27-1.11h.83V32.3H67.4Zm1.48,0h.83V32.3h-.83Zm-3.3,6.72h.83l.86-2.09h2.58l.82,2.09h.86L69,33.69h-.74L65.58,40Zm4-2.73H67.53l1-2.82h0l1,2.82Zm1.72-2.88h2l-.06,5.6H74l0-5.59h2v-.65H71.31v.65Zm5.48,5.23a3.07,3.07,0,0,0,1.72.49,1.84,1.84,0,0,0,2-1.79c0-2-2.81-1.64-2.81-3a1.09,1.09,0,0,1,1.09-1.09h.07a2.25,2.25,0,0,1,1.32.46l.3-.57a3.25,3.25,0,0,0-1.66-.49A1.71,1.71,0,0,0,77,35.08a.53.53,0,0,0,0,.13c0,2.18,2.75,1.53,2.75,3.12a1.13,1.13,0,0,1-1.11,1.14h-.13A2.42,2.42,0,0,1,77.14,39l-.35.56Zm4.6,0a3.07,3.07,0,0,0,1.72.49,1.8,1.8,0,0,0,2-1.56,1.69,1.69,0,0,0,0-.23c0-2-2.8-1.64-2.8-3a1.08,1.08,0,0,1,1.09-1.08h.06a2.3,2.3,0,0,1,1.33.46l.3-.57a3.28,3.28,0,0,0-1.67-.49,1.71,1.71,0,0,0-1.88,1.51s0,.09,0,.14c0,2.18,2.75,1.53,2.75,3.12a1.13,1.13,0,0,1-1.11,1.14h-.13A2.42,2.42,0,0,1,81.74,39l-.35.56Zm5.92-5.33h.94c1,0,1.39.58,1.39,1.25a1.23,1.23,0,0,1-1.2,1.28.75.75,0,0,1-.15,0h-1V34.23Zm-.82,5.7h.78l0-2.59h.89c1,0,2.22-.47,2.22-1.86a1.74,1.74,0,0,0-1.67-1.81,1.72,1.72,0,0,0-.32,0H86.55l-.06,6.24Zm5.16,0h.78l0-6.25h-.77l-.06,6.25Zm2-5.6h2l0,5.6h.77l.06-5.6h2v-.64H93.62v.65Zm4.48,5.61h.81l.85-2.09h2.58l.82,2.09H104l-2.53-6.26h-.74L98.1,39.94Zm4-2.74h-2l1-2.82h0l1,2.82Zm6.41,2.73v-.65h-2.66l.06-5.6h-.78l0,6.25Zm3.84,0h1.75c1.23,0,2-.63,2-1.74a1.46,1.46,0,0,0-1.25-1.52h0a1.38,1.38,0,0,0,1.1-1.45c0-.7-.47-1.52-1.84-1.52h-1.73l0,6.25Zm.82-3h.73c.9,0,1.44.4,1.44,1.15s-.5,1.21-1.3,1.21h-.91Zm0-2.75h.62c1,0,1.39.38,1.39,1.08s-.41,1.07-1.44,1.07h-.59l0-2.14Zm4.42,5.7h3.3v-.64h-2.51l0-2.18h2.37v-.64h-2.38l0-2.12h2.44v-.65h-3.21l-.06,6.24Zm4.68,0h.78l0-2.67h.5c.6,0,.78.36,1.16.86l1.36,1.83h1L125.66,38c-.26-.33-.62-.89-1-1h0a1.69,1.69,0,0,0,1.57-1.73c0-1-.8-1.64-2-1.64h-1.89l0,6.24Zm.83-5.7H124a1.21,1.21,0,0,1,1.39,1.26c0,.91-.8,1.18-1.56,1.18h-.78l0-2.44Zm4.91,5.7h.78l0-5h0l3.36,5h.73l.07-6.26h-.79l0,4.94h0l-3.4-4.95H128l0,6.25Z"/>
    <path id="Pfad_71" data-name="Pfad 71" class="cls-1" d="M107.55,9.82H110c2.68,0,3.69,1.56,3.69,3.33a3.3,3.3,0,0,1-3.21,3.39h-3l0-6.7Zm0,15.13V18.11h2.37c2.73,0,5.89-1.27,5.89-5,0-3.16-2.13-4.76-5.26-4.76h-5V25Zm13.18,0h2.06l0-16.56h-2.06l0,16.57Zm6.36-14.84h5.24l0,14.84h2l0-14.84h5.23V8.39H127.06v1.73ZM140,25h2.14l2.32-5.53h6.85L153.46,25h2.3L149,8.39h-2L140,25Zm10.61-7.26h-5.43L148,10.25h0Zm18,7.23V23.24h-7l0-14.85h-2.06V25Z"/>
    <path id="Pfad_72" data-name="Pfad 72" class="cls-1" d="M56.08,8.31a9.54,9.54,0,0,1,2.23.95l.07,0,0,.08-1.2,2.33,0,.09L57,11.74a8.12,8.12,0,0,0-1.55-.8,3.79,3.79,0,0,0-1.32-.3,2.73,2.73,0,0,0-1.86.63,2.21,2.21,0,0,0-.71,1.66h0c0,1.35,1.26,1.89,2.68,2.49,1.91.81,4.12,1.75,4.12,5h0v0h0a4.59,4.59,0,0,1-1.54,3.43,5.92,5.92,0,0,1-4,1.4h-.06a8.88,8.88,0,0,1-2.88-.52,13.84,13.84,0,0,1-2.45-1.11l-.08,0,0-.08,1.36-2.32,0-.08.08,0,.4.23a7.72,7.72,0,0,0,3.24,1.23A3.07,3.07,0,0,0,54.43,22a1.91,1.91,0,0,0,.7-1.51c0-1.36-1.32-1.95-2.79-2.61C50.39,17,48.18,16,48.18,13a4.81,4.81,0,0,1,1.61-3.62,5.78,5.78,0,0,1,4-1.43,8.6,8.6,0,0,1,2.32.31Z"/>
    <path id="Pfad_73" data-name="Pfad 73" class="cls-1" d="M77.23,25l0-16.75h3.19l0,13.93H87V25Z"/>
    <path id="Pfad_74" data-name="Pfad 74" class="cls-1" d="M62.83,25l0-16.75h9v2.82H66l0,4.07h5.83v2.68H66l0,4.36h5.89V25Z"/>
    <path id="Pfad_75" data-name="Pfad 75" class="cls-1" d="M30,25l0-16.86h3.39l7.4,12.3,0-12.19h3V25.13H40.24L33,12.93,33,25Z"/>
    <path id="Pfad_76" data-name="Pfad 76" class="cls-1" d="M21.47,25V8.29h3.21l0,16.75Z"/>
    <path id="Pfad_77" data-name="Pfad 77" class="cls-1" d="M90.75,24a8.13,8.13,0,0,0,4.54,1.32c3.64,0,5.37-2.3,5.37-4.77,0-5.19-7.45-4.36-7.45-8a2.89,2.89,0,0,1,2.87-2.91h.19a5.89,5.89,0,0,1,3.52,1.22l.79-1.51a8.45,8.45,0,0,0-4.4-1.29c-2.94,0-5,1.8-5,4.36,0,5.79,7.3,4.07,7.3,8.28a3,3,0,0,1-2.9,3,2.23,2.23,0,0,1-.37,0,8.09,8.09,0,0,1-4-1.47l-.91,1.48.5.27Z"/>
  </g>
</svg>
